<?xml version="1.0" standalone="no"?>
<!DOCTYPE svg PUBLIC "-//W3C//DTD SVG 20010904//EN"
 "http://www.w3.org/TR/2001/REC-SVG-20010904/DTD/svg10.dtd">
<svg version="1.0" xmlns="http://www.w3.org/2000/svg"
 width="756.000000pt" height="754.000000pt" viewBox="0 0 756.000000 754.000000"
 preserveAspectRatio="xMidYMid meet">

<g transform="translate(0.000000,754.000000) scale(0.100000,-0.100000)"
fill="#000000" stroke="none">
<path d="M4737 7150 c-72 -13 -131 -46 -185 -105 -76 -82 -96 -133 -97 -235 0
-73 4 -93 28 -142 36 -74 119 -150 195 -178 114 -44 260 -10 350 81 21 20 53
67 72 105 31 62 35 77 35 149 0 72 -4 86 -34 143 -76 140 -212 208 -364 182z
m165 -159 c68 -43 92 -83 96 -161 5 -89 -23 -151 -86 -191 -59 -37 -101 -45
-170 -29 -44 10 -64 22 -102 59 -62 62 -77 106 -60 180 10 46 21 64 59 101 52
51 92 67 167 69 39 1 60 -5 96 -28z"/>
<path d="M1040 6988 c0 -62 5 -120 10 -128 12 -18 12 -17 10 88 -1 45 1 82 4
82 2 0 37 -41 77 -90 40 -50 75 -87 79 -83 12 15 -1 233 -14 233 -9 0 -11 -23
-8 -85 3 -47 2 -85 -1 -85 -3 0 -35 41 -71 90 -36 50 -70 90 -76 90 -6 0 -10
-43 -10 -112z"/>
<path d="M1285 6976 c1 -120 17 -164 23 -66 3 47 5 50 30 50 37 0 72 11 72 21
0 5 -22 9 -50 9 l-50 0 0 45 0 45 61 0 c39 0 58 4 54 10 -4 6 -36 10 -74 8
l-68 -2 2 -120z"/>
<path d="M940 6971 c0 -102 2 -121 15 -121 13 0 15 17 13 117 -2 82 -7 118
-15 121 -10 3 -13 -25 -13 -117z"/>
<path d="M1507 7065 c-40 -41 -52 -79 -38 -125 15 -49 74 -103 104 -95 90 26
125 144 66 219 -29 37 -95 37 -132 1z m117 -27 c28 -40 16 -126 -22 -154 -29
-22 -59 -16 -87 18 -23 27 -26 39 -22 75 6 58 30 83 78 83 28 0 42 -6 53 -22z"/>
<path d="M1789 7063 c-6 -15 -20 -53 -31 -83 -11 -30 -24 -59 -28 -65 -4 -5
-10 -22 -14 -37 -5 -21 -3 -28 8 -28 8 0 17 14 21 30 6 29 8 30 66 30 54 0 60
-2 69 -24 10 -27 30 -44 29 -24 0 25 -86 222 -97 226 -7 2 -17 -9 -23 -25z
m45 -73 c10 -28 16 -53 13 -56 -10 -10 -78 8 -74 20 2 6 10 28 18 49 7 20 16
37 19 37 3 0 14 -23 24 -50z"/>
<path d="M1958 6970 c2 -66 7 -120 13 -120 5 0 9 24 9 54 l0 54 38 -18 c20
-10 48 -35 61 -54 14 -21 32 -36 43 -36 18 0 15 6 -17 46 l-38 46 31 25 c38
29 43 72 12 103 -16 16 -33 20 -87 20 l-68 0 3 -120z m140 55 c5 -38 -19 -55
-75 -55 l-43 0 0 45 0 46 58 -3 c55 -3 57 -4 60 -33z"/>
<path d="M2200 7048 c-17 -23 -30 -54 -30 -70 0 -63 57 -138 104 -138 11 1 35
12 51 26 l30 26 -30 -7 c-82 -18 -113 4 -122 87 -4 37 -1 49 20 73 22 27 27
28 51 17 15 -7 39 -12 54 -12 l27 1 -24 19 c-14 12 -38 20 -62 20 -34 0 -43
-5 -69 -42z"/>
<path d="M2400 6976 c0 -66 4 -117 10 -121 6 -4 10 17 10 54 l0 61 60 0 59 0
3 -62 c2 -36 7 -62 13 -61 14 4 19 243 5 243 -5 0 -10 -22 -10 -50 l0 -51 -62
3 -63 3 -3 48 c-2 26 -7 47 -13 47 -5 0 -9 -49 -9 -114z"/>
<path d="M2630 6969 c0 -92 3 -120 13 -117 8 3 13 39 15 121 2 100 0 117 -13
117 -13 0 -15 -19 -15 -121z"/>
<path d="M3505 6799 c-130 -68 -213 -114 -239 -132 l-28 -20 6 -281 c3 -155 9
-350 12 -434 l7 -153 -62 36 c-69 39 -98 42 -161 20 -53 -19 -61 -19 -54 0 4
9 3 50 -1 92 l-7 77 -19 -25 c-14 -19 -19 -41 -19 -101 0 -70 -2 -79 -22 -91
-113 -69 -224 -130 -246 -136 -34 -9 -40 -31 -41 -157 l-1 -102 -80 35 c-123
53 -136 53 -227 1 -43 -25 -161 -87 -263 -138 -102 -50 -222 -112 -267 -137
l-83 -45 0 -561 0 -562 -347 3 c-242 2 -365 0 -403 -9 -65 -14 -163 -73 -218
-133 -56 -60 -64 -107 -52 -293 11 -168 11 -546 0 -703 -6 -97 -7 -99 -8 -33
-2 66 -3 71 -22 66 -11 -3 -20 -11 -20 -18 0 -15 -22 -25 -56 -25 -14 0 -27
-7 -30 -15 -4 -8 -15 -15 -25 -15 -12 0 -23 -10 -29 -25 -6 -14 -15 -23 -23
-19 -7 2 -22 -4 -32 -16 -10 -11 -24 -20 -31 -20 -7 0 -14 -5 -16 -10 -2 -6
-17 -12 -33 -13 -17 -1 -31 -8 -31 -15 -1 -6 -2 -21 -3 -32 -1 -13 -8 -20 -21
-20 -11 0 -20 -4 -20 -9 0 -5 -9 -12 -20 -16 -12 -4 -22 -19 -26 -41 -4 -20
-13 -38 -20 -41 -8 -3 -14 -13 -14 -23 0 -10 -4 -20 -9 -22 -5 -1 -10 -46 -11
-98 -4 -138 -3 -148 20 -155 11 -3 20 -15 20 -26 0 -10 5 -19 10 -19 6 0 10
-9 10 -20 0 -11 6 -20 14 -20 8 0 18 -9 21 -20 4 -13 15 -20 30 -20 15 0 26
-7 30 -20 4 -13 15 -20 31 -20 18 0 24 -5 24 -21 0 -15 6 -20 23 -18 12 2 38
-7 57 -19 19 -12 45 -22 57 -22 12 0 23 -5 25 -11 2 -5 24 -12 48 -14 60 -6
131 -24 147 -36 7 -6 37 -12 67 -14 29 -2 78 -14 107 -28 30 -13 59 -26 64
-28 28 -12 85 -52 85 -61 0 -5 4 -7 9 -3 18 11 61 -18 61 -41 0 -14 8 -25 20
-29 10 -3 29 -23 42 -43 22 -36 22 -36 29 -12 6 24 7 23 24 -15 9 -22 21 -47
25 -55 3 -8 16 -19 28 -25 12 -5 22 -15 22 -22 0 -19 22 -63 32 -63 15 0 38
-27 38 -44 0 -11 9 -16 28 -16 17 0 33 -8 42 -21 34 -49 39 -54 40 -41 0 14
30 17 30 2 0 -5 21 -10 48 -10 34 0 43 -3 32 -10 -11 -7 -6 -8 16 -4 19 4 34
1 38 -5 11 -17 116 -14 116 3 0 11 22 16 88 21 48 4 90 13 95 19 5 8 9 7 15
-2 5 -7 29 -13 55 -14 26 0 50 -4 53 -9 3 -5 41 -9 85 -9 46 0 79 -4 79 -10 0
-5 16 -10 36 -10 38 0 64 -18 64 -44 0 -11 9 -16 28 -16 16 0 32 -8 39 -19 11
-17 22 -19 79 -17 44 1 71 -2 80 -11 7 -7 20 -13 28 -13 9 0 16 -4 16 -10 0
-5 14 -10 30 -10 17 0 30 -4 30 -10 0 -5 8 -10 18 -10 10 0 24 -9 32 -20 8
-11 22 -20 32 -20 10 0 18 -4 18 -10 0 -6 40 -10 100 -10 60 0 100 4 100 10 0
6 18 10 39 10 31 0 41 4 46 20 3 11 13 20 21 20 8 0 14 10 14 25 0 29 21 33
44 9 9 -8 16 -11 16 -5 0 6 8 11 18 11 10 0 24 9 32 20 8 11 22 20 32 20 10 0
18 4 18 9 0 5 18 12 39 16 43 7 46 12 60 135 11 92 13 51 15 -245 1 -248 2
-262 24 -309 35 -77 67 -112 137 -151 60 -34 79 -41 160 -60 29 -7 29 -8 8
-16 -12 -4 -47 -4 -79 1 -93 15 -112 -24 -46 -96 45 -50 96 -69 146 -55 50 13
65 32 85 105 19 68 54 118 109 154 47 32 89 96 101 153 7 29 11 177 11 360 0
266 2 310 15 315 8 4 15 15 15 25 0 16 7 19 44 19 37 0 48 5 70 31 14 17 26
37 26 44 0 8 17 19 38 25 23 6 39 16 39 25 0 8 -4 15 -9 15 -4 0 -8 5 -8 10 0
6 14 3 32 -6 17 -9 57 -19 88 -21 47 -5 67 -1 112 19 89 41 166 139 169 215 1
18 5 9 11 -23 12 -67 36 -81 169 -95 57 -5 115 -12 127 -15 l24 -5 -8 -189 -7
-189 31 -29 c43 -41 97 -54 163 -42 59 11 160 56 197 86 l24 20 -1 452 -2 451
508 3 c583 3 536 -4 653 104 110 103 103 53 105 704 1 603 1 605 -48 659 -35
39 -155 112 -190 117 -18 2 -192 5 -387 7 l-355 4 3 169 c1 93 0 345 -4 560
l-6 391 -97 47 c-53 27 -159 86 -236 131 -77 46 -180 102 -228 126 l-88 44 2
72 c4 84 6 82 -136 158 -49 27 -121 67 -160 91 -100 59 -107 60 -163 27 -26
-16 -93 -49 -150 -73 -57 -24 -105 -47 -108 -52 -20 -32 -24 25 -24 358 0 230
-4 372 -10 384 -6 11 -68 48 -138 83 -70 36 -168 89 -218 120 -91 54 -330 178
-369 191 -12 3 -36 -3 -60 -15z m158 -106 c50 -25 106 -56 122 -69 17 -12 57
-35 90 -51 92 -45 345 -184 350 -193 3 -5 8 -543 11 -1197 l6 -1190 -144 -6
c-78 -4 -234 -7 -345 -7 l-203 0 0 88 c0 48 -2 143 -4 212 -5 150 -6 976 -1
1040 1 25 -1 101 -5 169 -6 79 -5 166 2 240 7 66 10 250 9 426 -3 281 5 585
15 585 3 0 46 -21 97 -47z m-350 -1011 l59 -27 -6 -224 c-3 -123 -6 -500 -6
-838 l0 -613 -104 0 -104 0 -7 84 c-5 59 -1 1673 4 1704 1 2 25 -11 54 -28 28
-17 78 -43 110 -58z m1304 -184 c-4 -150 -7 -551 -7 -891 0 -547 -2 -618 -15
-615 -13 3 -16 48 -19 323 -5 337 -12 455 -27 455 -5 0 -9 9 -9 20 0 11 -7 20
-15 20 -11 0 -13 13 -9 68 3 37 7 90 8 119 1 40 7 57 27 77 24 23 27 36 32
132 4 59 7 207 7 330 0 216 1 228 29 233 2 1 1 -122 -2 -271z m219 157 c31
-14 83 -41 116 -61 l59 -36 -6 -77 c-3 -42 -8 -397 -11 -790 l-5 -714 -61 7
c-33 3 -86 6 -117 6 l-56 0 3 845 c1 532 6 845 12 845 5 0 35 -11 66 -25z
m191 -147 c-3 -7 -5 -2 -5 12 0 14 2 19 5 13 2 -7 2 -19 0 -25z m-2487 -151
l105 -52 -2 -230 c-1 -126 -2 -425 -2 -662 l-1 -433 -109 0 -109 0 -7 273 c-5
201 -2 1135 4 1155 2 6 23 -3 121 -51z m2725 -110 c66 -36 147 -81 179 -101
32 -19 78 -43 102 -52 27 -10 44 -24 48 -38 3 -11 6 -258 6 -547 l0 -526 -212
-2 c-117 0 -232 2 -255 5 l-43 6 0 652 c0 358 3 661 6 674 6 21 8 21 28 9 11
-8 75 -43 141 -80z m-2966 -204 c-1 -159 -4 -313 -8 -343 -5 -33 -8 67 -9 245
-2 311 -6 370 -26 358 -6 -4 -5 1 3 10 7 9 20 17 27 17 12 0 14 -49 13 -287z
m-119 213 c0 -2 -7 -7 -16 -10 -8 -3 -12 -2 -9 4 6 10 25 14 25 6z m-58 -34
c-12 -10 -55 -35 -95 -55 -74 -39 -159 -94 -189 -124 -19 -17 -22 -68 -8 -113
8 -24 8 -24 9 6 1 27 6 33 34 39 35 8 34 8 60 20 10 4 20 5 22 3 3 -2 -11 -11
-30 -18 l-35 -14 6 -82 7 -82 -41 1 c-34 2 -42 -2 -45 -18 -3 -11 -4 49 -3
133 l1 153 145 75 c80 42 149 80 155 85 5 5 14 9 20 9 5 0 0 -8 -13 -18z m732
-8 l63 -16 5 -277 c3 -153 3 -426 0 -607 l-5 -329 -73 3 -73 4 3 266 c2 147 4
426 5 620 0 193 3 352 6 352 3 0 34 -7 69 -16z m-657 -140 c-3 -3 -12 -4 -19
-1 -8 3 -5 6 6 6 11 1 17 -2 13 -5z m-98 -104 l2 -90 -45 0 -46 0 0 63 c0 34
4 67 8 73 6 10 58 40 73 43 4 1 7 -39 8 -89z m108 -47 c-3 -10 -5 -2 -5 17 0
19 2 27 5 18 2 -10 2 -26 0 -35z m-108 -255 c-1 -57 -4 -75 -9 -58 -5 14 -8
18 -9 9 -1 -18 -47 -53 -54 -41 -10 17 -6 92 5 98 8 5 9 2 4 -11 -5 -15 -4
-16 8 -6 10 8 16 9 21 1 14 -23 25 -7 25 40 0 28 2 50 5 50 3 0 5 -37 4 -82z
m-65 30 c-3 -4 -9 -8 -15 -8 -5 0 -9 4 -9 8 0 5 7 9 15 9 8 0 12 -4 9 -9z
m-116 -15 c-12 -3 -18 -15 -19 -36 -1 -25 -3 -27 -6 -9 -6 33 3 52 24 51 17
-1 17 -2 1 -6z m-101 -65 c-3 -7 -5 -2 -5 12 0 14 2 19 5 13 2 -7 2 -19 0 -25z
m93 -37 c0 -16 6 -32 13 -34 9 -4 9 -6 0 -6 -14 -1 -18 5 -27 42 -4 16 -2 27
4 27 5 0 10 -13 10 -29z m85 -131 c-3 -5 -12 -7 -20 -3 -21 7 -19 13 6 13 11
0 18 -4 14 -10z m-37 -8 c8 -6 1 -13 -23 -25 -30 -14 -35 -15 -35 -2 0 8 7 15
15 15 8 0 15 5 15 10 0 12 10 13 28 2z m139 -84 c-2 -18 -4 -4 -4 32 0 36 2
50 4 33 2 -18 2 -48 0 -65z m-200 -80 c-2 -18 -4 -4 -4 32 0 36 2 50 4 33 2
-18 2 -48 0 -65z m160 -131 c25 -27 59 -91 68 -128 6 -22 3 -25 -17 -23 -13 1
-38 3 -55 3 l-33 1 0 85 c0 47 3 85 8 85 4 0 17 -11 29 -23z m240 -54 c-2 -16
-4 -3 -4 27 0 30 2 43 4 28 2 -16 2 -40 0 -55z m-435 -66 c21 1 40 -3 43 -8 4
-5 25 -9 47 -9 67 0 40 -7 -54 -15 l-88 -7 1 54 c1 46 2 49 8 18 6 -33 8 -35
43 -33z m2673 -35 c-3 -3 -11 0 -18 7 -9 10 -8 11 6 5 10 -3 15 -9 12 -12z
m1943 -136 c37 -19 89 -75 101 -109 15 -38 15 -1028 0 -1080 -16 -58 -101
-154 -147 -165 -21 -5 -1201 -8 -2752 -8 l-2716 2 -34 22 c-42 27 -70 51 -90
77 -11 15 -7 14 12 -4 24 -21 32 -23 75 -16 56 10 106 10 185 0 31 -4 69 -4
84 -1 26 7 99 74 129 120 9 13 29 29 45 35 29 10 30 9 77 -76 26 -48 59 -94
73 -104 28 -19 69 -16 193 16 57 15 79 16 145 7 112 -15 126 -10 207 76 38 41
85 81 103 88 17 8 32 18 32 22 0 4 -37 9 -82 11 -45 1 -86 5 -90 7 -4 3 -8
211 -8 462 0 299 -4 452 -10 442 -5 -8 -10 -25 -10 -38 0 -18 -11 -28 -45 -43
l-45 -20 0 -404 0 -405 -73 0 c-83 0 -85 1 -132 85 -15 28 -76 118 -135 200
-58 83 -121 171 -139 198 -17 26 -35 47 -40 47 -4 0 -6 -53 -4 -117 1 -65 4
-184 6 -265 l3 -148 -88 0 -88 0 0 338 c0 185 5 393 10 462 5 68 7 126 5 129
-2 2 -11 -14 -20 -36 -12 -30 -27 -45 -60 -62 -25 -12 -46 -30 -47 -39 -1 -9
-2 -189 -2 -399 -1 -210 -3 -384 -6 -387 -4 -3 -44 -3 -90 1 l-85 6 0 439 c0
242 -3 442 -8 445 -4 2 -7 -3 -7 -11 0 -17 -79 -94 -116 -114 -24 -13 -24 -12
-24 34 0 26 5 76 11 111 9 53 18 71 57 114 l46 52 76 -9 c76 -9 568 -12 780
-5 63 2 320 1 570 -1 250 -3 484 -2 520 3 92 11 173 11 635 3 226 -4 421 -7
435 -7 14 0 221 3 460 7 239 3 563 5 720 5 157 -1 339 -1 405 0 66 0 156 -4
200 -10 82 -10 520 4 635 21 87 12 129 11 158 -4z m-5634 -1405 c58 -40 60
-51 4 -18 -24 14 -46 24 -50 23 -4 0 -19 17 -35 39 -47 65 -49 72 -6 29 22
-23 61 -55 87 -73z m2704 -153 c45 -18 111 -26 115 -14 12 35 17 -223 13 -679
-5 -501 -6 -521 -26 -547 -25 -35 -25 -42 1 -28 22 13 131 9 164 -5 16 -6 14
-1 -9 23 l-28 30 3 204 c2 112 2 353 0 535 -2 183 0 366 3 405 l7 73 75 -5
c73 -5 74 -5 75 20 0 23 1 23 9 5 12 -28 12 -990 0 -1203 -5 -95 -15 -192 -22
-214 -7 -26 -32 -61 -63 -93 -77 -78 -151 -92 -245 -45 -43 22 -60 41 -91 100
-24 44 -24 50 -27 390 -4 341 8 1112 16 1077 2 -10 16 -23 30 -29z m1452 -186
c3 -108 4 -199 3 -201 -3 -5 -181 29 -212 41 l-24 9 7 147 c10 207 -1 189 112
185 82 -2 94 -1 94 14 0 9 3 13 7 9 4 -4 10 -96 13 -204z m-2467 183 c55 -5
82 -3 92 5 13 11 15 -11 15 -172 l0 -184 -106 -17 c-58 -9 -110 -15 -115 -11
-10 6 -12 298 -3 357 5 28 11 36 23 33 9 -2 51 -7 94 -11z m649 5 c13 -5 38
-22 57 -38 31 -26 35 -35 38 -87 l3 -58 -29 39 c-16 22 -49 53 -75 69 -36 24
-46 36 -46 58 0 29 13 34 52 17z m1313 -30 c7 0 23 -9 36 -20 l24 -19 -42 16
c-27 10 -43 22 -42 32 0 10 2 12 6 4 2 -7 11 -13 18 -13z m709 -90 c81 -40 81
-40 87 -18 7 28 18 -181 22 -446 l3 -199 -53 -23 c-29 -13 -72 -27 -95 -30
-70 -12 -68 -23 -67 425 1 290 4 387 11 364 9 -28 24 -39 92 -73z m-3095 63
c1 5 8 2 16 -6 8 -9 18 -17 22 -19 11 -4 63 -85 63 -97 0 -5 7 -17 16 -25 13
-13 15 -41 15 -159 -1 -129 1 -146 18 -166 l20 -22 5 43 c4 24 7 66 9 93 2 28
3 -57 3 -187 0 -225 -1 -238 -19 -238 -24 0 -168 48 -184 62 -10 8 -13 85 -13
333 0 325 6 438 21 400 4 -11 8 -16 8 -12z m2151 -37 c0 -2 -8 -10 -17 -17
-16 -13 -17 -12 -4 4 13 16 21 21 21 13z m-1148 -71 c21 -8 64 -70 79 -112 20
-59 -22 -147 -85 -177 -79 -37 -168 -10 -206 63 -23 45 -25 69 -9 124 27 100
121 143 221 102z m1388 -14 c43 -22 80 -84 80 -132 0 -50 -38 -118 -80 -141
-46 -25 -107 -19 -160 16 -54 35 -73 76 -67 139 4 44 10 56 50 94 41 38 51 43
94 43 28 0 63 -8 83 -19z m-2213 -118 c-2 -16 -4 -5 -4 22 0 28 2 40 4 28 2
-13 2 -35 0 -50z m1890 -370 c-9 -9 -20 -13 -24 -9 -4 4 1 14 11 22 25 18 35
8 13 -13z m-2199 -106 c5 -32 6 -55 1 -50 -4 4 -11 33 -14 63 -8 71 1 61 13
-13z m57 -95 c-6 -7 -34 11 -29 19 3 5 11 3 19 -4 7 -6 12 -13 10 -15z m212
-68 c-3 -3 -12 -4 -19 -1 -8 3 -5 6 6 6 11 1 17 -2 13 -5z m81 -11 c-10 -2
-26 -2 -35 0 -10 3 -2 5 17 5 19 0 27 -2 18 -5z"/>
<path d="M3718 6375 c2 -47 7 -83 11 -80 5 2 16 -4 26 -15 10 -11 28 -20 40
-20 20 0 23 6 28 76 3 42 3 82 0 90 -3 7 -21 18 -41 24 -68 18 -67 19 -64 -75z"/>
<path d="M3953 6290 c4 -35 7 -73 7 -86 0 -18 8 -26 40 -35 25 -8 44 -9 50 -3
5 5 6 40 2 79 -7 74 -12 79 -81 100 l-24 7 6 -62z"/>
<path d="M3718 6046 l3 -93 51 -17 c28 -9 53 -16 57 -16 3 0 4 41 1 91 l-5 91
-45 19 c-25 10 -49 18 -55 18 -6 1 -9 -34 -7 -93z"/>
<path d="M3958 6015 c-2 -2 -2 -37 0 -78 l4 -75 46 -20 c26 -11 48 -20 49 -19
1 1 3 38 4 81 l2 80 -51 17 c-28 9 -52 16 -54 14z"/>
<path d="M3720 5708 l0 -93 55 -22 55 -21 0 68 c0 38 3 75 6 83 6 17 -19 37
-78 62 l-38 15 0 -92z"/>
<path d="M3960 5606 c0 -93 2 -97 71 -116 29 -9 29 -9 29 38 0 26 3 63 6 83 7
39 12 34 -93 76 -10 4 -13 -16 -13 -81z"/>
<path d="M3720 5358 c0 -88 0 -89 28 -98 15 -6 35 -15 45 -21 11 -6 20 -9 22
-7 2 2 6 41 10 88 l6 85 -55 21 -56 21 0 -89z"/>
<path d="M3960 5271 l0 -86 50 -22 50 -22 0 58 c0 32 3 72 6 88 6 28 3 30 -50
50 l-56 21 0 -87z"/>
<path d="M3720 5023 l0 -88 47 -20 c26 -11 50 -21 53 -22 3 -2 5 37 5 87 0 70
-3 90 -15 93 -8 3 -32 12 -52 21 l-38 16 0 -87z"/>
<path d="M3958 4939 l-3 -81 31 -13 c76 -32 72 -35 76 56 l3 82 -30 12 c-77
32 -73 35 -77 -56z"/>
<path d="M3720 4681 c0 -80 2 -91 18 -91 9 0 32 -9 50 -20 l32 -20 0 68 c0 37
3 76 6 88 6 21 4 22 -93 61 -10 4 -13 -17 -13 -86z"/>
<path d="M3960 4626 c0 -35 -2 -70 -5 -78 -3 -8 13 -20 47 -34 29 -12 54 -21
55 -20 1 1 3 37 4 81 3 87 0 92 -73 109 l-28 6 0 -64z"/>
<path d="M3730 4340 l0 -67 32 -7 c17 -3 32 -5 33 -4 1 2 5 31 8 65 l5 61 -39
10 -39 10 0 -68z"/>
<path d="M3954 4313 c3 -25 6 -54 6 -63 0 -10 18 -29 39 -43 l39 -26 4 67 c2
37 0 71 -4 77 -5 5 -27 15 -49 22 l-42 12 7 -46z"/>
<path d="M5210 5061 c0 -15 -3 -48 -6 -72 l-6 -44 56 -22 56 -21 0 72 0 72
-39 22 c-51 29 -61 28 -61 -7z"/>
<path d="M5400 4927 l0 -72 45 -16 45 -17 0 69 0 69 -40 20 c-21 11 -42 20
-45 20 -3 0 -5 -33 -5 -73z"/>
<path d="M5200 4721 c0 -39 1 -71 3 -71 1 0 26 -9 55 -20 l52 -20 0 75 c0 83
0 83 -77 100 l-33 7 0 -71z"/>
<path d="M5400 4642 l0 -70 40 -16 c22 -9 43 -16 45 -16 3 0 5 31 5 69 0 66
-1 69 -27 79 -16 5 -36 13 -45 17 -16 6 -18 0 -18 -63z"/>
<path d="M5210 4427 l0 -72 33 -11 c17 -6 40 -14 50 -19 15 -6 17 0 17 68 l0
75 -47 16 c-26 9 -48 16 -50 16 -2 0 -3 -33 -3 -73z"/>
<path d="M5407 4413 c-4 -3 -7 -32 -7 -63 l0 -58 42 -10 c23 -6 43 -10 44 -9
1 1 4 28 6 59 l5 57 -39 16 c-44 17 -43 17 -51 8z"/>
<path d="M5208 4139 c-3 -57 -1 -62 20 -70 13 -5 34 -9 48 -9 23 0 24 3 24 56
0 53 -1 55 -35 70 -19 7 -39 14 -44 14 -5 0 -11 -28 -13 -61z"/>
<path d="M5404 4103 c3 -21 6 -46 6 -55 0 -18 30 -41 68 -53 21 -6 22 -4 22
49 0 55 0 56 -42 76 -57 27 -62 26 -54 -17z"/>
<path d="M1717 3668 c-5 -18 -25 -39 -60 -61 -79 -52 -110 -90 -117 -143 l-5
-45 -40 55 c-22 30 -41 53 -43 51 -2 -2 25 -43 60 -92 35 -48 74 -106 87 -128
22 -36 131 -185 136 -185 6 0 2 524 -4 547 l-8 28 -6 -27z"/>
<path d="M2573 3650 c0 -25 2 -35 4 -22 2 12 2 32 0 45 -2 12 -4 2 -4 -23z"/>
<path d="M3605 3655 c-8 -19 -31 -47 -52 -62 -120 -92 -154 -137 -203 -272
-19 -51 -25 -60 -31 -45 -4 11 -8 -17 -8 -66 -2 -158 -38 -259 -125 -345 -79
-79 -130 -99 -251 -100 -92 0 -104 2 -150 29 -96 55 -151 122 -179 216 -24 82
-22 338 3 412 33 95 67 142 156 213 15 12 11 12 -14 -2 -19 -10 -63 -44 -97
-76 -51 -47 -63 -55 -67 -40 -4 14 -5 13 -6 -4 -1 -24 -15 -31 -26 -13 -4 6
-77 10 -185 10 l-179 0 2 -100 2 -100 142 0 c163 0 152 8 156 -105 l2 -60
-152 -3 -153 -3 1 -147 c1 -92 4 -128 8 -97 9 74 16 80 57 55 20 -11 41 -20
48 -20 7 0 23 -23 37 -52 13 -28 29 -56 34 -62 6 -6 30 -42 54 -81 49 -78 127
-165 151 -165 8 0 24 -7 34 -15 27 -20 79 -19 153 5 61 19 87 31 148 70 17 10
38 19 48 19 9 1 17 6 17 11 0 22 27 7 74 -40 48 -50 65 -56 130 -52 35 3 146
80 176 122 12 17 35 37 51 45 47 25 34 35 -46 35 -41 0 -75 4 -75 8 0 41 225
644 285 762 47 93 67 150 54 150 -5 0 -17 -16 -24 -35z"/>
<path d="M4065 3660 c-5 -24 -23 -41 -76 -76 -88 -58 -115 -91 -124 -150 -5
-34 -9 -43 -16 -33 -15 24 -10 5 15 -57 28 -69 99 -288 149 -456 l34 -118 -87
0 -87 0 -21 86 c-12 48 -23 88 -25 90 -1 2 -72 4 -157 5 l-155 1 -26 -84 c-15
-45 -30 -92 -34 -102 -6 -14 -5 -17 4 -12 21 13 152 -59 201 -109 25 -26 56
-52 70 -59 37 -19 174 -20 254 -1 94 22 141 48 171 95 18 28 35 42 62 49 40
12 38 13 73 -39 58 -88 95 -110 178 -110 58 0 99 10 197 48 l50 19 45 -26 c25
-14 47 -28 50 -32 3 -4 29 -17 58 -28 83 -33 173 -15 278 54 79 53 134 46 172
-21 9 -16 23 -19 80 -19 67 0 71 1 114 40 25 22 50 50 56 61 6 12 41 37 79 55
l68 34 3 48 c2 31 7 47 15 44 14 -4 36 -105 37 -170 1 -116 43 -147 173 -128
45 7 128 12 184 11 94 -1 105 1 144 26 24 15 66 50 93 79 28 29 69 61 91 71
l40 19 -87 3 -88 3 -2 342 c-2 587 -4 611 -30 562 -18 -33 -79 -86 -90 -79 -8
5 -10 -109 -6 -392 2 -219 3 -407 1 -416 -4 -15 -16 -18 -83 -18 l-78 0 -7 31
c-4 17 -4 100 0 185 l7 154 -164 0 -165 0 5 -185 5 -185 -87 0 -86 0 -1 63
c-1 34 0 241 1 460 2 346 0 397 -13 397 -8 0 -20 -13 -25 -30 -6 -16 -23 -35
-38 -42 -23 -11 -33 -9 -75 15 -64 36 -74 34 -18 -2 24 -17 55 -41 68 -55 27
-28 25 -33 -36 -103 l-28 -33 -61 31 c-71 36 -162 48 -217 30 -64 -21 -128
-115 -141 -206 -6 -39 -6 -39 5 -10 7 17 13 31 14 33 1 2 18 -4 36 -11 56 -24
165 -57 187 -57 12 0 37 -8 56 -17 42 -19 60 -62 59 -136 -1 -43 -6 -54 -39
-88 -22 -23 -58 -46 -84 -55 l-45 -14 48 5 c52 5 90 22 124 54 l23 21 59 -59
59 -59 -47 -42 c-69 -62 -121 -89 -187 -98 -115 -15 -228 23 -313 107 -104
101 -136 198 -130 393 4 105 6 118 38 183 19 39 57 95 85 125 l51 54 -50 -41
c-99 -82 -185 -171 -185 -189 0 -41 -28 -125 -54 -162 -14 -21 -44 -51 -65
-67 l-39 -30 35 -70 c20 -38 66 -118 104 -176 38 -58 69 -109 69 -113 0 -4
-46 -5 -102 -4 l-102 3 -43 75 c-24 41 -64 114 -90 163 l-48 88 -62 -2 -63 -2
0 -163 0 -164 -85 0 -85 0 0 460 c0 426 -5 519 -25 430z"/>
<path d="M5712 3670 c0 -14 2 -19 5 -12 2 6 2 18 0 25 -3 6 -5 1 -5 -13z"/>
<path d="M5985 3658 c-8 -18 -31 -44 -50 -58 -99 -69 -121 -88 -139 -124 -11
-22 -21 -65 -22 -95 -2 -52 -4 -56 -28 -59 -24 -3 -25 0 -29 50 l-3 53 -2 -57
-2 -58 139 0 c77 0 146 -3 155 -6 14 -5 16 15 16 190 0 201 -6 230 -35 164z"/>
<path d="M2864 3491 c-61 -28 -88 -72 -92 -153 -3 -53 -1 -68 9 -68 12 0 63
-80 64 -100 1 -3 9 -20 19 -38 9 -19 15 -36 13 -39 -3 -2 1 -20 9 -39 8 -19
12 -39 9 -44 -3 -4 -1 -20 5 -34 l10 -26 -37 15 c-20 9 -43 21 -52 28 -12 9
-13 9 -7 -1 12 -20 82 -52 114 -52 94 0 176 65 186 147 14 123 17 251 7 291
-30 111 -148 162 -257 113z"/>
<path d="M4260 3391 l0 -118 48 -5 c26 -2 76 -2 111 2 55 5 67 10 92 38 53 60
34 148 -41 187 -19 10 -59 15 -120 15 l-90 0 0 -119z"/>
<path d="M3302 3325 c0 -16 2 -22 5 -12 2 9 2 23 0 30 -3 6 -5 -1 -5 -18z"/>
<path d="M3662 3329 c-6 -13 -28 -67 -49 -119 l-40 -95 93 -3 c71 -2 94 1 94
10 0 19 -70 211 -80 222 -6 6 -13 0 -18 -15z"/>
<path d="M5024 3001 c7 -11 46 -35 46 -28 0 3 -12 12 -26 22 -15 9 -23 12 -20
6z"/>
<path d="M5732 2830 c0 -14 2 -19 5 -12 2 6 2 18 0 25 -3 6 -5 1 -5 -13z"/>
<path d="M3595 1010 c-3 -5 -1 -10 4 -10 6 0 11 5 11 10 0 6 -2 10 -4 10 -3 0
-8 -4 -11 -10z"/>
<path d="M3551 964 c-12 -15 -21 -36 -20 -48 0 -14 2 -16 6 -6 3 8 14 30 25
48 24 39 17 42 -11 6z"/>
<path d="M5797 6333 c3 -60 7 -110 9 -112 2 -2 4 46 4 107 0 64 -4 112 -9 112
-6 0 -8 -43 -4 -107z"/>
<path d="M5893 6433 l-33 -4 3 -105 c1 -64 6 -103 12 -101 6 2 11 19 13 38 4
37 15 49 49 49 12 0 25 5 29 12 5 8 -4 9 -33 5 l-40 -7 -6 42 c-3 23 -3 46 -1
50 3 4 30 8 60 8 30 0 54 5 54 10 0 10 -42 11 -107 3z"/>
<path d="M6320 6416 c-5 -14 -25 -64 -45 -111 -39 -95 -39 -95 -25 -95 5 0 13
15 18 33 5 21 14 32 25 31 9 0 35 -1 56 -2 34 -2 41 -6 51 -34 10 -25 14 -29
17 -15 3 9 -9 45 -26 78 -17 34 -33 77 -37 95 -8 44 -22 52 -34 20z m28 -61
c5 -16 13 -38 17 -47 6 -15 1 -18 -34 -18 -23 0 -41 3 -41 8 0 19 35 101 41
95 3 -5 11 -21 17 -38z"/>
<path d="M6474 6328 c5 -130 3 -118 16 -118 6 0 10 20 10 45 0 40 3 45 23 45
14 0 38 -17 65 -47 43 -48 43 -48 18 -8 -32 49 -32 50 -2 86 22 25 24 33 14
60 -12 35 -41 49 -104 49 l-45 0 5 -112z m126 63 c5 -11 7 -26 4 -35 -6 -16
-55 -36 -90 -36 -22 0 -24 4 -24 45 l0 45 50 0 c38 0 52 -4 60 -19z"/>
<path d="M6698 6394 c-44 -54 -46 -74 -15 -129 41 -72 101 -80 157 -20 l23 24
-39 -19 c-51 -26 -80 -25 -109 5 -34 33 -33 84 2 125 25 30 29 32 77 26 l51
-6 -24 20 c-13 11 -37 20 -55 20 -25 0 -38 -9 -68 -46z"/>
<path d="M5570 6325 c0 -68 4 -104 10 -100 6 3 10 48 10 100 0 52 -4 97 -10
100 -6 4 -10 -32 -10 -100z"/>
<path d="M5650 6325 c0 -130 18 -141 22 -14 l3 91 41 -64 c23 -34 49 -76 57
-93 9 -16 16 -23 17 -15 0 33 -109 200 -132 200 -4 0 -8 -47 -8 -105z"/>
<path d="M6056 6399 c-53 -63 -14 -189 58 -189 33 0 84 45 94 83 28 105 -86
185 -152 106z m118 -11 c25 -36 21 -104 -9 -133 -66 -67 -142 21 -101 118 14
34 18 37 55 37 30 0 44 -6 55 -22z"/>
<path d="M6897 6353 c1 -43 2 -93 3 -111 0 -20 4 -31 10 -27 6 3 10 26 10 51
l0 44 59 0 60 0 4 -52 c2 -32 4 -14 5 44 1 53 5 103 8 112 4 11 1 16 -10 16
-12 0 -16 -10 -16 -45 l0 -45 -37 0 c-21 0 -48 -3 -60 -6 -22 -6 -23 -3 -23
45 0 28 -3 51 -7 51 -5 0 -7 -35 -6 -77z"/>
<path d="M7108 6320 c2 -60 7 -110 13 -110 5 0 9 48 9 110 0 81 -3 110 -12
110 -10 0 -12 -27 -10 -110z"/>
<path d="M2350 6130 c0 -17 5 -21 28 -18 16 2 27 9 27 18 0 9 -11 16 -27 18
-23 3 -28 -1 -28 -18z"/>
<path d="M6162 5227 c-28 -30 -28 -58 1 -85 23 -22 26 -22 426 -22 l402 0 24
25 c30 29 32 65 7 88 -17 15 -61 17 -429 17 l-410 0 -21 -23z"/>
<path d="M725 5090 c34 -5 64 -4 69 1 6 5 -17 8 -60 8 l-69 -2 60 -7z"/>
<path d="M1208 5093 c7 -3 16 -2 19 1 4 3 -2 6 -13 5 -11 0 -14 -3 -6 -6z"/>
<path d="M5941 4824 c-26 -34 -27 -68 -1 -94 61 -61 154 27 104 98 -22 32 -76
30 -103 -4z"/>
<path d="M6220 4841 c-56 -10 -75 -75 -32 -108 22 -18 113 -16 140 3 15 10 22
25 22 49 0 56 -38 73 -130 56z"/>
<path d="M1034 4831 c-46 -11 -54 -19 -54 -51 0 -38 23 -50 110 -57 80 -7 100
3 100 49 0 54 -15 68 -73 67 -29 -1 -66 -4 -83 -8z"/>
<path d="M1342 4828 c-7 -7 -12 -26 -12 -43 0 -39 16 -55 55 -55 39 0 55 16
55 55 0 39 -16 55 -55 55 -17 0 -36 -5 -43 -12z"/>
<path d="M277 3223 c-15 -15 -6 -52 14 -58 28 -9 53 16 44 44 -6 20 -43 29
-58 14z"/>
<path d="M7020 3207 c0 -33 23 -52 39 -33 18 22 9 51 -17 54 -18 3 -22 -1 -22
-21z"/>
<path d="M3371 1264 c0 -11 3 -14 6 -6 3 7 2 16 -1 19 -3 4 -6 -2 -5 -13z"/>
</g>
</svg>
